<svg width="24" height="24" viewBox="0 0 24 24" fill="none" xmlns="http://www.w3.org/2000/svg">
    <g clipPath="url(#clip0_220_5631)">
        <path
            d="M20.9984 12.562L7.78133 20.1928C6.86856 20.7198 6.55568 21.8867 7.0825 22.7992C7.60929 23.7116 8.77629 24.0241 9.68906 23.4971L22.9061 15.8662C23.8189 15.3392 24.1318 14.1724 23.605 13.2599C23.0782 12.3475 21.9112 12.035 20.9984 12.562Z"
            fill="#FF7829" />
        <path
            d="M11.8572 10.1223L1.94443 15.8454C1.03167 16.3724 0.718769 17.5393 1.24557 18.4518C1.77237 19.3642 2.93939 19.6767 3.85216 19.1497L13.7649 13.4265C14.6777 12.8996 14.9906 11.7327 14.4638 10.8202C13.937 9.90778 12.77 9.59529 11.8572 10.1223Z"
            fill="#FCBF22" />
        <path
            d="M14.3084 0.973843L1.09139 8.60472C0.178628 9.13169 -0.134254 10.2986 0.392545 11.211C0.919347 12.1235 2.08635 12.436 2.99912 11.909L16.2162 4.2781C17.1289 3.75112 17.4418 2.58422 16.915 1.67178C16.3882 0.759337 15.2212 0.446859 14.3084 0.973843Z"
            fill="#2AE5B9" />
    </g>
    <defs>
        <clipPath id="clip0_220_5631">
            <rect width="24" height="23.9121" fill="white" />
        </clipPath>
    </defs>
</svg>
